<svg width="14" height="14" viewBox="0 0 14 14" fill="none" xmlns="http://www.w3.org/2000/svg">
<path d="M11.2175 8.90169L9.73586 8.73253C9.56164 8.71206 9.38504 8.73135 9.21935 8.78894C9.05365 8.84653 8.90317 8.94092 8.77919 9.06503L7.70586 10.1384C6.04988 9.29615 4.7039 7.95017 3.86169 6.29419L4.94086 5.21503C5.19169 4.96419 5.31419 4.61419 5.27336 4.25836L5.10419 2.78836C5.07112 2.5038 4.93455 2.24133 4.72049 2.05094C4.50644 1.86054 4.22984 1.75552 3.94336 1.75586H2.93419C2.27502 1.75586 1.72669 2.30419 1.76752 2.96336C2.07669 7.94503 6.06086 11.9234 11.0367 12.2325C11.6959 12.2734 12.2442 11.725 12.2442 11.0659V10.0567C12.25 9.46753 11.8067 8.97169 11.2175 8.90169Z" fill="#008CEF"/>
</svg>
